<svg xmlns="http://www.w3.org/2000/svg" width="36.781" height="30" viewBox="0 0 36.781 30">
  <defs>
    <style>
      .cls-1 {
        fill: #dcdcdc;
        fill-rule: evenodd;
      }
    </style>
  </defs>
  <path id="Фигура_1_копия" data-name="Фигура 1 копия" class="cls-1" d="M789,1699a4.724,4.724,0,0,1-1.239.88,3.99,3.99,0,1,1-3.267-6.83c1.93-1.36,4.991-4.03,4.506-7.05a0.035,0.035,0,0,0-.006-0.02c-0.164.01-.327,0.02-0.494,0.02a7.5,7.5,0,1,1,6.954-10.3C797.089,1678.84,799.049,1689.36,789,1699Zm21,0a4.724,4.724,0,0,1-1.239.88,3.99,3.99,0,1,1-3.267-6.83c1.93-1.36,4.991-4.03,4.506-7.05a0.035,0.035,0,0,0-.006-0.02c-0.164.01-.327,0.02-0.494,0.02a7.5,7.5,0,1,1,6.954-10.3C818.089,1678.84,820.049,1689.36,810,1699Z" transform="translate(-781 -1671)"/>
</svg>
